<?xml version="1.0" encoding="UTF-8" standalone="no"?>
<!-- Created with Inkscape (http://www.inkscape.org/) -->

<svg
   width="338.66666mm"
   height="169.33333mm"
   viewBox="0 0 338.66666 169.33333"
   version="1.1"
   id="svg5"
   sodipodi:docname="ptahhatp_black.svg"
   inkscape:version="1.2.2 (b0a8486541, 2022-12-01)"
   xmlns:inkscape="http://www.inkscape.org/namespaces/inkscape"
   xmlns:sodipodi="http://sodipodi.sourceforge.net/DTD/sodipodi-0.dtd"
   xmlns="http://www.w3.org/2000/svg"
   xmlns:svg="http://www.w3.org/2000/svg">
  <sodipodi:namedview
     id="namedview30"
     pagecolor="#ffffff"
     bordercolor="#666666"
     borderopacity="1.0"
     inkscape:showpageshadow="2"
     inkscape:pageopacity="0.0"
     inkscape:pagecheckerboard="0"
     inkscape:deskcolor="#d1d1d1"
     inkscape:document-units="mm"
     showgrid="false"
     inkscape:zoom="0.20582195"
     inkscape:cx="-259.9334"
     inkscape:cy="473.71041"
     inkscape:window-width="1854"
     inkscape:window-height="1011"
     inkscape:window-x="1986"
     inkscape:window-y="32"
     inkscape:window-maximized="1"
     inkscape:current-layer="svg5" />
  <defs
     id="defs2">
    <rect
       x="176.03406"
       y="286.76505"
       width="613.09125"
       height="252.64377"
       id="rect2498" />
  </defs>
  <g
     id="layer1"
     transform="matrix(7.8722214,0,0,6.3148728,-364.95904,-571.25392)"
     style="stroke-width:0.141831">
    <g
       transform="scale(0.26458333)"
       id="text2496"
       style="font-size:40px;line-height:1.25;font-family:'Noto Sans Egyptian Hieroglyphs';-inkscape-font-specification:'Noto Sans Egyptian Hieroglyphs';word-spacing:0px;white-space:pre;shape-inside:url(#rect2498);stroke-width:0.141831" />
    <g
       aria-label="ð“‹´  "
       id="text8588"
       style="font-size:10.5833px;line-height:1.25;font-family:'Atkinson Hyperlegible';-inkscape-font-specification:'Atkinson Hyperlegible';stroke-width:0.037526">
      <path
         d="m 48.037033,117.27667 v -11.32413 q 0,-0.37042 0.04233,-0.71967 0.04233,-0.34925 0.201082,-0.62441 0.15875,-0.28575 0.497415,-0.45508 0.349249,-0.16934 0.952497,-0.16934 0.613832,0 0.952497,0.1905 0.349249,0.17992 0.507999,0.48684 0.158749,0.29633 0.190499,0.64558 0.04233,0.34925 0.04233,0.66674 v 7.7364 h -0.83608 v -7.75756 q 0,-0.28575 -0.05292,-0.53975 -0.04233,-0.26458 -0.222249,-0.42333 -0.179916,-0.16933 -0.582082,-0.16933 -0.391582,0 -0.582081,0.19049 -0.179916,0.1905 -0.232833,0.45509 -0.04233,0.26458 -0.04233,0.48683 v 11.32413 z m 0.201083,-0.20108 h 0.433915 v -11.12305 q 0,-0.1905 0.03175,-0.42333 0.03175,-0.23284 0.127,-0.43392 0.105833,-0.21167 0.317499,-0.33866 0.211666,-0.13759 0.582081,-0.13759 0.497415,0 0.719665,0.20109 0.222249,0.19049 0.275165,0.49741 0.0635,0.29633 0.0635,0.635 v 7.55647 h 0.433916 v -7.53531 q 0,-0.28574 -0.03175,-0.59266 -0.03175,-0.3175 -0.179916,-0.58208 -0.137583,-0.27517 -0.444499,-0.4445 -0.296332,-0.16933 -0.836081,-0.16933 -0.529165,0 -0.83608,0.15875 -0.296333,0.14816 -0.444499,0.40216 -0.137583,0.254 -0.179916,0.5715 -0.03175,0.30692 -0.03175,0.635 z"
         id="path36100"
         style="stroke-width:0.037526" />
    </g>
    <g
       aria-label="ð“„Ÿ"
       id="text10298"
       style="font-size:10.5833px;line-height:1.25;font-family:'Atkinson Hyperlegible';-inkscape-font-specification:'Atkinson Hyperlegible';stroke-width:0.037526">
      <path
         d="m 63.381751,102.5531 q -0.1905,0 -0.317499,-0.22225 -0.116417,-0.21167 -0.1905,-0.52916 -0.07408,-0.3175 -0.105833,-0.635 -0.03175,-0.3175 -0.03175,-0.51858 0,-0.28575 0.04233,-0.698502 0.04233,-0.423332 0.09525,-0.730248 -0.179916,-0.02117 -0.264582,-0.126999 -0.08467,-0.116417 -0.08467,-0.254 0,-0.08467 0.05292,-0.169332 0.05292,-0.09525 0.127,-0.22225 0.08467,-0.137582 0.169332,-0.306915 0.09525,-0.179916 0.15875,-0.380999 -0.03175,0.01058 -0.0635,0.02117 -0.02117,0 -0.05292,0 -0.201083,0 -0.296333,-0.116417 -0.09525,-0.116416 -0.09525,-0.275166 0,-0.07408 0.05292,-0.169332 0.05292,-0.09525 0.127,-0.22225 0.08467,-0.137583 0.179916,-0.317499 0.09525,-0.179916 0.148166,-0.380998 -0.04233,0.02117 -0.116416,0.02117 -0.402166,0 -0.402166,-0.455082 0,-0.497415 0.222249,-0.878414 0.232833,-0.391582 0.592665,-0.656164 0.370416,-0.275166 0.783164,-0.412749 0.423332,-0.137583 0.793748,-0.137583 h 0.169333 l -1.238246,-1.121829 0.603248,-0.582082 q 0.433915,0.497415 0.709081,0.814914 0.275166,0.317499 0.370415,0.433915 L 65.41374,91.662891 h 0.836081 l -0.09525,1.629828 1.037164,-1.217079 0.603248,0.582082 -1.24883,1.121829 h 0.201083 q 0.370415,0 0.783164,0.137583 0.423332,0.137583 0.783164,0.412749 0.370416,0.264582 0.592665,0.656164 0.232833,0.380999 0.232833,0.878414 0,0.455082 -0.412749,0.455082 -0.02117,0 -0.05292,0 -0.03175,-0.01058 -0.0635,-0.02117 0.0635,0.201082 0.158749,0.380998 0.09525,0.179916 0.179916,0.317499 0.08467,0.127 0.127,0.22225 0.05292,0.09525 0.05292,0.169332 0,0.15875 -0.09525,0.275166 -0.09525,0.116417 -0.306916,0.116417 -0.04233,0 -0.105833,-0.02117 0.05292,0.201083 0.148166,0.380999 0.09525,0.169333 0.179916,0.306915 0.08467,0.127 0.127,0.22225 0.05292,0.08467 0.05292,0.169332 0,0.137583 -0.08467,0.254 -0.08467,0.105833 -0.264582,0.126999 0.05292,0.306916 0.09525,0.730248 0.04233,0.412752 0.04233,0.698502 0,0.20108 -0.03175,0.51858 -0.03175,0.3175 -0.105833,0.635 -0.07408,0.31749 -0.201083,0.52916 -0.127,0.22225 -0.306916,0.22225 -0.190499,0 -0.317499,-0.22225 -0.116416,-0.21167 -0.190499,-0.52916 -0.07408,-0.3175 -0.105833,-0.635 -0.03175,-0.3175 -0.03175,-0.51858 0,-0.28575 0.04233,-0.698502 0.05292,-0.423332 0.09525,-0.730248 -0.179916,-0.02117 -0.264583,-0.126999 -0.08467,-0.116417 -0.08467,-0.254 0,-0.08467 0.05292,-0.179916 0.05292,-0.09525 0.127,-0.232832 0.08467,-0.137583 0.179916,-0.306916 0.09525,-0.169333 0.148166,-0.359832 -0.0635,0.02117 -0.116416,0.02117 -0.201083,0 -0.296332,-0.116417 -0.09525,-0.116416 -0.09525,-0.275166 0,-0.08467 0.05292,-0.179916 0.05292,-0.09525 0.127,-0.232832 0.08467,-0.137583 0.179916,-0.306916 0.09525,-0.169333 0.15875,-0.370415 -0.03175,0.01058 -0.0635,0.02117 -0.03175,0 -0.0635,0 -0.190499,0 -0.296332,-0.09525 -0.105833,-0.105833 -0.09525,-0.275165 0,-0.0635 0.02117,-0.116417 0.03175,-0.0635 0.0635,-0.126999 0.02117,-0.05292 0.03175,-0.105833 0.02117,-0.0635 0.02117,-0.116416 0,-0.211666 -0.116417,-0.433916 -0.116416,-0.222249 -0.359832,-0.380999 -0.243416,-0.158749 -0.645581,-0.169332 -0.08467,0.137583 -0.253999,0.232832 0.02117,0.243416 0.116416,0.444499 0.105833,0.190499 0.201083,0.349249 0.08467,0.116416 0.137583,0.222249 0.05292,0.105833 0.05292,0.190499 0,0.148167 -0.09525,0.264583 -0.09525,0.116416 -0.306915,0.116416 -0.07408,0 -0.116417,-0.02117 0.05292,0.201082 0.148167,0.370415 0.105833,0.169333 0.179916,0.306916 0.08467,0.137583 0.137583,0.232832 0.05292,0.09525 0.05292,0.179916 0,0.15875 -0.09525,0.275166 -0.09525,0.116417 -0.306915,0.116417 -0.04233,0 -0.105833,-0.02117 0.05292,0.190499 0.148166,0.359832 0.09525,0.169333 0.169333,0.306916 0.08467,0.137583 0.137583,0.232832 0.05292,0.09525 0.05292,0.179916 0,0.137583 -0.08467,0.254 -0.08467,0.105833 -0.264583,0.126999 0.05292,0.306916 0.09525,0.730248 0.04233,0.412752 0.04233,0.698502 0,0.20108 -0.03175,0.51858 -0.03175,0.3175 -0.105833,0.635 -0.07408,0.31749 -0.201082,0.52916 -0.127,0.22225 -0.306916,0.22225 -0.190499,0 -0.317499,-0.22225 -0.116416,-0.21167 -0.190499,-0.52916 -0.07408,-0.3175 -0.105833,-0.635 -0.03175,-0.3175 -0.03175,-0.51858 0,-0.28575 0.04233,-0.698502 0.04233,-0.423332 0.08467,-0.730248 -0.169333,-0.02117 -0.253999,-0.126999 -0.08467,-0.116417 -0.08467,-0.254 0,-0.08467 0.05292,-0.169332 0.05292,-0.09525 0.127,-0.22225 0.08467,-0.137582 0.169333,-0.306915 0.09525,-0.179916 0.158749,-0.380999 -0.03175,0.01058 -0.0635,0.02117 -0.02117,0 -0.05292,0 -0.201083,0 -0.296333,-0.116417 -0.09525,-0.116416 -0.09525,-0.275166 0,-0.07408 0.05292,-0.169332 0.05292,-0.09525 0.127,-0.22225 0.08467,-0.137583 0.179916,-0.317499 0.09525,-0.179916 0.148166,-0.380998 -0.04233,0.02117 -0.116416,0.02117 -0.201083,0 -0.296333,-0.116416 -0.09525,-0.116416 -0.09525,-0.264583 0,-0.08467 0.05292,-0.190499 0.05292,-0.105833 0.127,-0.222249 0.105833,-0.148166 0.201082,-0.338666 0.105833,-0.201083 0.116417,-0.444498 -0.179916,-0.105833 -0.275166,-0.232833 -0.380999,0.01058 -0.624415,0.169333 -0.243416,0.158749 -0.359832,0.380999 -0.105833,0.211666 -0.105833,0.423332 0,0.116416 0.05292,0.222249 0.03175,0.0635 0.05292,0.126999 0.02117,0.05292 0.03175,0.116417 0.01058,0.169332 -0.105833,0.275165 -0.105833,0.09525 -0.296332,0.09525 -0.07408,0 -0.116417,-0.02117 0.05292,0.201082 0.148166,0.370415 0.105833,0.169333 0.179917,0.306916 0.08467,0.137583 0.137582,0.232832 0.05292,0.09525 0.05292,0.179916 0,0.15875 -0.09525,0.275166 -0.09525,0.116417 -0.306915,0.116417 -0.04233,0 -0.105833,-0.02117 0.05292,0.190499 0.148166,0.359832 0.09525,0.169333 0.169333,0.306916 0.08467,0.137583 0.137582,0.232832 0.05292,0.09525 0.05292,0.179916 0,0.137583 -0.08467,0.254 -0.08467,0.105833 -0.264583,0.126999 0.05292,0.306916 0.09525,0.730248 0.04233,0.412752 0.04233,0.698502 0,0.20108 -0.03175,0.51858 -0.03175,0.3175 -0.105833,0.635 -0.07408,0.31749 -0.201083,0.52916 -0.126999,0.22225 -0.306915,0.22225 z m 2.582325,-9.270971 0.07408,-1.407579 h -0.402165 l 0.0635,1.396996 q 0.03175,0 0.05292,0 0.03175,-0.01058 0.0635,-0.01058 0.0635,0 0.148166,0.02117 z m 0.497415,0.338666 1.037163,-0.96308 -0.296332,-0.28575 -0.920747,1.047747 q 0.05292,0.04233 0.09525,0.09525 0.04233,0.05292 0.08467,0.105833 z m -1.301746,0 q 0.07408,-0.116417 0.190499,-0.201083 l -0.93133,-1.047747 -0.285749,0.28575 z m 0.656165,0.984247 q 0.243416,0 0.402165,-0.15875 0.169333,-0.169333 0.169333,-0.402165 0,-0.243416 -0.169333,-0.402166 -0.158749,-0.169332 -0.402165,-0.169332 -0.232833,0 -0.402166,0.169332 -0.169333,0.15875 -0.169333,0.402166 0,0.232832 0.169333,0.402165 0.169333,0.15875 0.402166,0.15875 z m 1.98966,1.513411 q 0.08467,0 0.190499,-0.116416 0.105833,-0.126999 0.179916,-0.232832 h 0.179917 q 0.07408,0.105833 0.179916,0.232832 0.116416,0.116416 0.190499,0.116416 0.201083,0 0.201083,-0.253999 0,-0.444498 -0.201083,-0.783164 -0.201083,-0.349249 -0.529165,-0.592665 -0.328082,-0.243416 -0.709081,-0.370415 -0.380999,-0.127 -0.740831,-0.127 h -0.15875 v 0.05292 q 0,0.137583 -0.05292,0.275166 0.380999,0.01058 0.645581,0.201082 0.275166,0.179916 0.423332,0.444499 0.148166,0.253999 0.148166,0.518582 0,0.08467 -0.02117,0.158749 -0.02117,0.07408 -0.05292,0.148166 -0.01058,0.05292 -0.04233,0.09525 -0.02117,0.03175 -0.02117,0.07408 0,0.158749 0.190499,0.158749 z m -4.889484,0 q 0.08467,0 0.190499,-0.116416 0.116416,-0.126999 0.190499,-0.232832 h 0.169333 q 0.07408,0.105833 0.179916,0.232832 0.116416,0.116416 0.1905,0.116416 0.190499,0 0.190499,-0.158749 0,-0.04233 -0.02117,-0.07408 -0.01058,-0.04233 -0.03175,-0.09525 -0.03175,-0.07408 -0.0635,-0.148166 -0.02117,-0.07408 -0.02117,-0.158749 0,-0.254 0.137583,-0.507999 0.148166,-0.264582 0.412749,-0.444498 0.275165,-0.179917 0.645581,-0.201083 -0.02117,-0.0635 -0.03175,-0.137583 -0.01058,-0.07408 -0.01058,-0.148166 v -0.05292 h -0.137583 q -0.359832,0 -0.751414,0.127 -0.380999,0.126999 -0.709082,0.370415 -0.328082,0.243416 -0.529164,0.592665 -0.201083,0.338666 -0.201083,0.783164 0,0.253999 0.201083,0.253999 z m 2.444742,0 q 0.08467,0 0.190499,-0.116416 0.116416,-0.126999 0.1905,-0.232832 h 0.169332 q 0.07408,0.105833 0.179916,0.232832 0.116417,0.116416 0.1905,0.116416 0.09525,0 0.137583,-0.05292 0.05292,-0.05292 0.05292,-0.127 0,-0.04233 -0.04233,-0.116416 -0.04233,-0.08467 -0.105833,-0.179916 -0.105833,-0.169333 -0.211666,-0.370415 -0.105833,-0.201083 -0.137583,-0.412749 h -0.296332 q -0.03175,0.201083 -0.148166,0.412749 -0.105833,0.201082 -0.201083,0.370415 -0.0635,0.09525 -0.116416,0.179916 -0.04233,0.07408 -0.04233,0.116416 0,0.07408 0.04233,0.127 0.05292,0.05292 0.148166,0.05292 z m -2.444742,1.449913 q 0.08467,0 0.190499,-0.116417 0.116416,-0.126999 0.190499,-0.232832 h 0.169333 q 0.07408,0.105833 0.179916,0.232832 0.116416,0.116417 0.1905,0.116417 0.105833,0 0.148166,-0.05292 0.04233,-0.05292 0.04233,-0.127 0,-0.03175 -0.04233,-0.116416 -0.04233,-0.08467 -0.105833,-0.190499 -0.116417,-0.1905 -0.243416,-0.455082 -0.127,-0.264583 -0.169333,-0.529165 -0.0635,-0.0635 -0.08467,-0.09525 l -0.08467,0.09525 q -0.04233,0.285749 -0.179916,0.550331 -0.126999,0.264583 -0.243416,0.455082 -0.05292,0.09525 -0.105833,0.179916 -0.04233,0.07408 -0.04233,0.105833 0,0.07408 0.04233,0.127 0.05292,0.05292 0.148167,0.05292 z m 2.444742,0 q 0.08467,0 0.190499,-0.116417 0.116416,-0.126999 0.1905,-0.232832 h 0.169332 q 0.07408,0.105833 0.179916,0.232832 0.116417,0.116417 0.1905,0.116417 0.09525,0 0.137583,-0.05292 0.05292,-0.05292 0.05292,-0.127 0,-0.03175 -0.04233,-0.116416 -0.04233,-0.08467 -0.105833,-0.190499 -0.116416,-0.1905 -0.243416,-0.455082 -0.126999,-0.264583 -0.169333,-0.529165 -0.0635,-0.0635 -0.08467,-0.09525 l -0.08467,0.09525 q -0.04233,0.285749 -0.179917,0.550331 -0.126999,0.264583 -0.243415,0.455082 -0.05292,0.09525 -0.105833,0.179916 -0.04233,0.07408 -0.04233,0.105833 0,0.07408 0.04233,0.127 0.05292,0.05292 0.148167,0.05292 z m 2.444742,0 q 0.08467,0 0.190499,-0.116417 0.105833,-0.126999 0.179916,-0.232832 h 0.179917 q 0.07408,0.105833 0.179916,0.232832 0.116416,0.116417 0.190499,0.116417 0.09525,0 0.137583,-0.05292 0.05292,-0.05292 0.05292,-0.127 0,-0.03175 -0.05292,-0.105833 -0.04233,-0.08467 -0.09525,-0.179916 -0.105833,-0.190499 -0.243416,-0.455082 -0.137583,-0.264582 -0.169332,-0.550331 l -0.08467,-0.09525 q -0.02117,0.02117 -0.04233,0.05292 -0.02117,0.02117 -0.05292,0.04233 -0.03175,0.264582 -0.158749,0.529165 -0.127,0.264582 -0.243416,0.455082 -0.0635,0.105833 -0.116416,0.190499 -0.04233,0.08467 -0.04233,0.116416 0,0.07408 0.04233,0.127 0.05292,0.05292 0.148166,0.05292 z m -4.889484,1.449912 q 0.08467,0 0.190499,-0.116417 0.116416,-0.126999 0.190499,-0.232832 h 0.169333 q 0.07408,0.105833 0.179916,0.232832 0.116416,0.116417 0.1905,0.116417 0.105833,0 0.148166,-0.05292 0.04233,-0.05292 0.04233,-0.127 0,-0.03175 -0.04233,-0.116416 -0.04233,-0.08467 -0.105833,-0.190499 -0.116417,-0.1905 -0.243416,-0.444499 -0.127,-0.264582 -0.169333,-0.529165 -0.04233,-0.04233 -0.08467,-0.105833 l -0.08467,0.105833 q -0.04233,0.275166 -0.179916,0.539749 -0.126999,0.264582 -0.243416,0.444498 -0.05292,0.105833 -0.105833,0.179916 -0.04233,0.07408 -0.04233,0.116416 0,0.07408 0.04233,0.127 0.05292,0.05292 0.148167,0.05292 z m 2.444742,0 q 0.08467,0 0.190499,-0.116417 0.116416,-0.126999 0.1905,-0.232832 h 0.169332 q 0.07408,0.105833 0.179916,0.232832 0.116417,0.116417 0.1905,0.116417 0.09525,0 0.137583,-0.05292 0.05292,-0.05292 0.05292,-0.127 0,-0.03175 -0.04233,-0.116416 -0.04233,-0.08467 -0.105833,-0.190499 -0.116416,-0.1905 -0.243416,-0.444499 -0.126999,-0.264582 -0.169333,-0.529165 -0.04233,-0.04233 -0.08467,-0.105833 l -0.08467,0.105833 q -0.04233,0.275166 -0.179917,0.539749 -0.126999,0.264582 -0.243415,0.444498 -0.05292,0.105833 -0.105833,0.179916 -0.04233,0.07408 -0.04233,0.116416 0,0.07408 0.04233,0.127 0.05292,0.05292 0.148167,0.05292 z m 2.444742,0 q 0.08467,0 0.190499,-0.116417 0.105833,-0.126999 0.179916,-0.232832 h 0.179917 q 0.07408,0.105833 0.179916,0.232832 0.116416,0.116417 0.190499,0.116417 0.09525,0 0.137583,-0.05292 0.05292,-0.05292 0.05292,-0.127 0,-0.04233 -0.05292,-0.116416 -0.04233,-0.07408 -0.09525,-0.179916 -0.105833,-0.179916 -0.243416,-0.444498 -0.126999,-0.264583 -0.169332,-0.539749 l -0.08467,-0.105833 q -0.02117,0.02117 -0.04233,0.05292 -0.02117,0.03175 -0.05292,0.05292 -0.03175,0.264583 -0.158749,0.529165 -0.127,0.253999 -0.243416,0.444499 -0.0635,0.105833 -0.116416,0.190499 -0.04233,0.08467 -0.04233,0.116416 0,0.07408 0.04233,0.127 0.05292,0.05292 0.148166,0.05292 z m -4.423819,3.333742 q 0.126999,0 0.211666,-0.1905 0.08467,-0.1905 0.126999,-0.47625 0.05292,-0.28575 0.07408,-0.5715 0.02117,-0.28575 0.02117,-0.46566 0,-0.29634 -0.05292,-0.730252 -0.04233,-0.444499 -0.09525,-0.751414 -0.08467,-0.05292 -0.15875,-0.127 -0.07408,-0.07408 -0.126999,-0.137583 -0.05292,0.0635 -0.127,0.137583 -0.07408,0.07408 -0.158749,0.127 -0.05292,0.306915 -0.105833,0.751414 -0.05292,0.433912 -0.05292,0.730252 0,0.17991 0.02117,0.46566 0.02117,0.28575 0.07408,0.5715 0.05292,0.28575 0.137583,0.47625 0.08467,0.1905 0.211666,0.1905 z m 2.444742,0 q 0.127,0 0.211666,-0.1905 0.08467,-0.1905 0.126999,-0.47625 0.05292,-0.28575 0.07408,-0.5715 0.02117,-0.28575 0.02117,-0.46566 0,-0.29634 -0.05292,-0.730252 -0.04233,-0.444499 -0.09525,-0.751414 -0.08467,-0.05292 -0.158749,-0.127 -0.07408,-0.07408 -0.127,-0.137583 -0.05292,0.0635 -0.127,0.137583 -0.07408,0.07408 -0.158749,0.127 -0.05292,0.306915 -0.105833,0.751414 -0.05292,0.433912 -0.05292,0.730252 0,0.17991 0.02117,0.46566 0.02117,0.28575 0.07408,0.5715 0.05292,0.28575 0.137583,0.47625 0.08467,0.1905 0.211666,0.1905 z m 2.444742,0 q 0.127,0 0.211666,-0.1905 0.08467,-0.1905 0.127,-0.47625 0.05292,-0.28575 0.07408,-0.5715 0.02117,-0.28575 0.02117,-0.46566 0,-0.29634 -0.05292,-0.730252 -0.04233,-0.444499 -0.09525,-0.751414 -0.08467,-0.05292 -0.158749,-0.127 -0.07408,-0.07408 -0.127,-0.137583 -0.05292,0.0635 -0.126999,0.137583 -0.07408,0.07408 -0.15875,0.127 -0.05292,0.306915 -0.105833,0.751414 -0.05292,0.433912 -0.05292,0.730252 0,0.17991 0.02117,0.46566 0.02117,0.28575 0.07408,0.5715 0.05292,0.28575 0.137583,0.47625 0.08467,0.1905 0.211666,0.1905 z"
         id="path36097"
         style="stroke-width:0.037526" />
    </g>
    <g
       id="text11288"
       style="font-size:10.5833px;line-height:1.25;font-family:'Atkinson Hyperlegible';-inkscape-font-specification:'Atkinson Hyperlegible';stroke-width:0.037526" />
    <g
       aria-label="ð“‚œ "
       id="text12550"
       style="font-size:10.5833px;line-height:1.25;font-family:'Atkinson Hyperlegible';-inkscape-font-specification:'Atkinson Hyperlegible';stroke-width:0.037526">
      <path
         d="m 47.386943,95.938828 -0.645581,-0.28575 -0.380999,-0.423332 0.243416,-0.285749 0.582082,0.349249 q 0.09525,0.05292 0.243416,0.0635 0.148166,0.01058 0.306915,0.01058 0.169333,0 0.275166,-0.02117 0.105833,-0.02117 0.201083,-0.0635 l -0.02117,-0.08467 q -0.0635,0.01058 -0.201083,0.02117 -0.126999,0.01058 -0.179916,0.01058 -0.317499,0 -0.550331,-0.201082 l 0.148166,-0.317499 q 0.08467,0.02117 0.179916,0.0635 0.09525,0.03175 0.179916,0.03175 0.15875,0 0.275166,-0.03175 0.116416,-0.04233 0.222249,-0.05292 l 0.550332,0.243416 1.661578,-0.127 1.322912,0.01058 0.127,-0.105833 0.96308,-2.719908 q 0.148166,-0.433916 0.423332,-0.613832 0.275166,-0.179916 0.582082,-0.190499 0.317499,0.01058 0.592664,0.190499 0.275166,0.179916 0.423332,0.613832 l 0.952497,2.719908 0.127,0.105833 1.322912,-0.01058 1.661578,0.127 0.550332,-0.243416 q 0.116416,0.01058 0.222249,0.05292 0.116417,0.03175 0.285749,0.03175 0.08467,0 0.179917,-0.03175 0.105833,-0.04233 0.179916,-0.0635 l 0.148166,0.317499 q -0.243416,0.201082 -0.550332,0.201082 -0.0635,0 -0.190499,-0.01058 -0.127,-0.01058 -0.201083,-0.02117 l -0.02117,0.08467 q 0.09525,0.04233 0.201082,0.0635 0.116417,0.02117 0.285749,0.02117 0.15875,0 0.306916,-0.01058 0.148166,-0.01058 0.232833,-0.0635 l 0.582081,-0.349249 0.253999,0.285749 -0.380999,0.423332 -0.656164,0.28575 h -0.698498 l -0.804331,-0.22225 -3.312572,0.22225 h -0.306916 l -0.317499,-0.22225 -1.068913,-2.645825 -1.068914,2.645825 -0.306915,0.22225 h -0.306916 l -3.323156,-0.22225 -0.804331,0.22225 z m 0.03175,-0.169333 h 0.656165 l 0.793747,-0.264583 3.36549,0.243416 h 0.222249 l 0.169333,-0.116416 1.195913,-2.910408 h 0.148166 l 1.206496,2.910408 0.169333,0.116416 h 0.211666 l 3.376072,-0.243416 0.783164,0.264583 h 0.656165 l 0.582081,-0.253999 0.28575,-0.28575 -0.07408,-0.09525 -0.433915,0.253999 q -0.179916,0.105833 -0.328082,0.116416 -0.148166,0.01058 -0.328082,0.01058 -0.169333,0 -0.338666,-0.03175 -0.169333,-0.03175 -0.306916,-0.105833 l 0.09525,-0.317499 q 0.08467,0.01058 0.232833,0.02117 0.148166,0.01058 0.222249,0.01058 0.264582,0 0.380999,-0.105833 l -0.03175,-0.08467 q -0.0635,0.02117 -0.137583,0.04233 -0.07408,0.02117 -0.137583,0.02117 -0.169333,0 -0.296332,-0.03175 -0.127,-0.04233 -0.232833,-0.05292 l -0.529165,0.275165 -1.672161,-0.116416 -1.449912,0.02117 -0.211666,-0.179916 -0.963081,-2.825741 q 0,-0.01058 -0.07408,-0.15875 -0.07408,-0.158749 -0.253999,-0.306916 -0.169333,-0.158749 -0.476248,-0.158749 -0.296333,0 -0.476249,0.158749 -0.169333,0.148167 -0.243416,0.306916 -0.07408,0.148166 -0.08467,0.15875 l -0.96308,2.825741 -0.211666,0.179916 -1.449912,-0.02117 -1.661578,0.116416 -0.539749,-0.275165 q -0.09525,0.01058 -0.222249,0.05292 -0.127,0.03175 -0.296332,0.03175 -0.0635,0 -0.137583,-0.02117 -0.07408,-0.02117 -0.137583,-0.04233 l -0.04233,0.08467 q 0.137582,0.105833 0.380998,0.105833 0.08467,0 0.232833,-0.01058 0.148166,-0.01058 0.222249,-0.02117 l 0.09525,0.317499 q -0.127,0.07408 -0.296332,0.105833 -0.169333,0.03175 -0.349249,0.03175 -0.179916,0 -0.328083,-0.01058 -0.137583,-0.01058 -0.317499,-0.116416 l -0.433915,-0.253999 -0.08467,0.09525 0.285749,0.28575 z"
         id="path36093"
         style="stroke-width:0.037526" />
    </g>
    <g
       aria-label="ð“ˆ–"
       id="text20490"
       style="font-size:10.5833px;line-height:1.25;font-family:'Atkinson Hyperlegible';-inkscape-font-specification:'Atkinson Hyperlegible';stroke-width:0.037526">
      <path
         d="m 50.509017,102.28764 -0.761997,-0.94191 -0.740831,0.86783 h -0.920747 l 1.682745,-1.98966 0.730247,0.889 0.677331,-0.89958 0.698498,0.88899 0.645581,-0.88899 0.719665,0.89958 0.666748,-0.89958 0.666748,0.89958 0.709081,-0.89958 0.645581,0.89958 0.698498,-0.89958 0.677331,0.89958 0.730248,-0.889 1.682744,1.98966 h -0.910164 l -0.751414,-0.86783 -0.761997,0.94191 -0.687915,-0.93133 -0.677331,0.93133 -0.666748,-0.93133 -0.687914,0.93133 -0.666748,-0.93133 -0.666748,0.93133 -0.687915,-0.93133 -0.666748,0.93133 -0.687914,-0.93133 z m -1.98966,-0.27516 h 0.391582 l 0.846664,-0.99483 0.740831,0.92075 0.698498,-0.93133 0.687914,0.92074 0.666748,-0.92074 0.687915,0.92074 0.666748,-0.92074 0.666748,0.92074 0.687914,-0.92074 0.666748,0.92074 0.677331,-0.92074 0.698498,0.93133 0.740831,-0.92075 0.846664,0.99483 h 0.380999 l -1.238246,-1.4605 -0.740831,0.889 -0.666748,-0.889 -0.709081,0.89958 -0.645582,-0.89958 -0.698497,0.89958 -0.666748,-0.89958 -0.666748,0.89958 -0.709081,-0.88899 -0.645582,0.88899 -0.709081,-0.89958 -0.666748,0.889 -0.74083,-0.889 z"
         id="path36090"
         style="stroke-width:0.037526" />
    </g>
    <g
       aria-label="ð“Ÿ"
       id="text27396"
       style="font-size:10.5833px;line-height:1.25;font-family:'Atkinson Hyperlegible';-inkscape-font-specification:'Atkinson Hyperlegible';stroke-width:0.037526">
      <path
         d="m 52.945347,113.97465 v -2.89982 h 5.979564 l 1.037164,-1.85208 q -0.169333,-0.1905 -0.169333,-0.508 0,-0.34925 0.148166,-0.64558 0.15875,-0.30691 0.359832,-0.49741 0.317499,-0.28575 0.666748,-0.28575 0.243416,0 0.380999,0.17991 0.148166,0.17992 0.148166,0.47625 0,0.33867 -0.158749,0.64558 -0.148166,0.29634 -0.349249,0.49742 -0.306916,0.27516 -0.666748,0.27516 -0.105833,0 -0.190499,-0.0318 l -0.973664,1.74625 h 6.25473 v 2.89982 z m 7.418893,-4.8154 q 0.275166,0 0.539748,-0.28575 0.148167,-0.16933 0.264583,-0.41275 0.116416,-0.24341 0.116416,-0.51858 0,-0.20108 -0.09525,-0.3175 -0.08467,-0.127 -0.264583,-0.127 -0.275166,0 -0.539748,0.28575 -0.15875,0.15875 -0.275166,0.41275 -0.116416,0.24342 -0.116416,0.51858 0,0.20109 0.09525,0.32809 0.09525,0.11641 0.275166,0.11641 z m -7.207227,4.60374 h 12.054378 v -2.48708 H 53.157013 Z"
         id="path36087"
         style="stroke-width:0.037526" />
    </g>
    <g
       aria-label="ð“„¿ "
       id="text28264"
       style="font-size:10.5833px;line-height:1.25;font-family:'Atkinson Hyperlegible';-inkscape-font-specification:'Atkinson Hyperlegible';stroke-width:0.037526">
      <path
         d="m 72.022348,115.90084 q -0.05292,0 -0.232832,-0.0106 -0.179916,-0.0212 -0.412749,-0.0318 -0.296332,-0.0212 -0.613831,-0.0318 -0.306916,-0.0212 -0.455082,-0.0212 -0.105833,0 -0.359832,0.0106 -0.243416,0.0106 -0.539749,0.0212 -0.296332,0.0106 -0.560914,0.0212 -0.211666,0.0106 -0.391583,0.0212 -0.169332,0.0106 -0.201082,0.0106 -0.05292,0 -0.127,-0.0529 -0.0635,-0.0635 -0.116416,-0.10583 -0.05292,0.0318 -0.116416,0.0635 -0.05292,0.0317 -0.105833,0.0423 -0.05292,-0.0212 -0.169333,-0.0318 -0.105833,-0.0106 -0.232833,-0.0106 -0.105833,0 -0.222249,0.0212 -0.116416,0.0212 -0.222249,0.0423 -0.0635,0.0106 -0.116417,0.0212 -0.05292,0.0106 -0.105833,0.0106 -0.264582,0 -0.296332,-0.22225 -0.07408,0.0635 -0.116416,0.15875 l -0.201083,-0.0741 q 0.08467,-0.19049 0.275166,-0.29633 0.201082,-0.11641 0.444498,-0.13758 l 1.238246,-0.0952 q 0.201083,-0.39158 0.349249,-1.12183 0.148166,-0.74083 0.148166,-1.55575 0.01058,0 -0.01058,-0.19049 -0.01058,-0.20109 -0.04233,-0.49742 -0.02117,-0.30692 -0.05292,-0.62441 -0.03175,-0.3175 -0.07408,-0.55034 -0.03175,-0.23283 -0.05292,-0.29633 -0.03175,-0.0847 -0.148166,-0.35983 -0.105833,-0.27517 -0.232833,-0.62442 -0.127,-0.35983 -0.222249,-0.69849 -0.09525,-0.33867 -0.09525,-0.53975 0,-0.254 0.0635,-0.48683 0.0635,-0.23284 0.116416,-0.41275 0.04233,-0.11642 0.07408,-0.21167 0.03175,-0.10583 0.03175,-0.17991 0,-0.14817 -0.07408,-0.27517 -0.07408,-0.127 -0.232833,-0.127 l -1.291162,-0.0529 q -0.07408,0 -0.116416,0.0423 -0.04233,0.0318 -0.04233,0.0741 h -0.253999 v -0.24342 q 0,-0.13758 0.105833,-0.27516 0.105833,-0.14817 0.328083,-0.1905 l 2.137826,-0.46567 h 0.846664 q 0.328082,0 0.518582,0.127 0.190499,0.127 0.253999,0.43392 l 0.190499,0.79375 0.751415,0.76199 q 0.05292,0.0741 0.137582,0.1905 0.08467,0.11642 0.1905,0.28575 0.264582,0.35983 0.624415,0.86783 0.370415,0.508 0.730247,1.04775 0.359832,0.52916 0.603248,0.96308 l 1.979077,4.70957 -0.08467,0.28575 h -0.359832 l -0.539749,-0.52917 0.08467,0.254 q -0.07408,0.10583 -0.243416,0.22225 -0.169333,0.10583 -0.359832,0.10583 -0.423332,0 -0.751414,-0.26458 -0.317499,-0.26458 -0.539749,-0.84666 l -0.582081,-1.5875 q -0.07408,0.22225 -0.22225,0.58208 -0.148166,0.34925 -0.253999,0.60325 l -0.698498,-0.29633 -0.201082,1.16416 0.105833,0.0847 h 1.407579 q 0.211666,0 0.391582,0.11642 0.179916,0.11641 0.253999,0.30691 l -0.190499,0.0741 q -0.02117,-0.0423 -0.05292,-0.0847 -0.03175,-0.0423 -0.07408,-0.0847 -0.02117,0.0847 -0.116416,0.16933 -0.09525,0.0847 -0.254,0.0847 z m 0,-0.21167 q 0.08467,0 0.127,-0.0318 0.04233,-0.0423 0.04233,-0.0741 0,-0.0529 -0.05292,-0.0529 -0.05292,-0.0106 -0.105833,-0.0106 H 70.51952 l -0.1905,-0.23283 0.243416,-1.51341 0.772581,0.32808 0.455082,-1.21708 -1.418162,-1.43933 q -0.285749,-0.29633 -0.592665,-0.67733 -0.296332,-0.381 -0.560915,-0.78316 -0.264582,-0.40217 -0.433915,-0.77258 -0.158749,-0.37042 -0.158749,-0.65617 0,-0.21167 0.08467,-0.3175 0.09525,-0.10583 0.211666,-0.13758 0.116416,-0.0423 0.190499,-0.0423 0.05292,0 0.127,0.0106 0.07408,0.0106 0.158749,0.0212 0.105833,0.0106 0.211666,0.0318 0.105833,0.0106 0.169333,0.0106 0.08467,0 0.169333,0 0.09525,-0.0106 0.179916,-0.0212 0.07408,-0.0106 0.148166,-0.0106 0.07408,-0.0106 0.148166,-0.0106 0.116417,0 0.264583,0.0106 0.148166,0.0106 0.243416,0.0212 l -0.02117,0.21166 q -0.09525,-0.0212 -0.243416,-0.0318 -0.148166,-0.0106 -0.243416,-0.0106 -0.0635,0 -0.137582,0.0106 -0.0635,0 -0.137583,0.0106 -0.08467,0.0106 -0.179916,0.0212 -0.08467,0.0106 -0.1905,0.0106 -0.07408,0 -0.190499,-0.0106 -0.116416,-0.0212 -0.222249,-0.0318 -0.07408,-0.0212 -0.15875,-0.0212 -0.07408,-0.0106 -0.09525,-0.0106 -0.0635,0 -0.169332,0.0529 -0.105833,0.0529 -0.105833,0.23283 0,0.26458 0.158749,0.61383 0.15875,0.34925 0.412749,0.73025 0.253999,0.381 0.550331,0.75141 0.296333,0.35984 0.571498,0.64559 h -0.01058 l 4.402653,4.33915 0.137583,-0.0106 q 0.02117,-0.0635 0.02117,-0.0741 l -1.95791,-4.61432 q -0.243416,-0.4445 -0.603248,-0.97366 -0.349249,-0.53975 -0.709081,-1.03716 -0.349249,-0.508 -0.613832,-0.85725 -0.116416,-0.15875 -0.211666,-0.27517 -0.08467,-0.127 -0.137583,-0.20108 l -0.77258,-0.78316 -0.1905,-0.84667 q -0.08467,-0.40216 -0.571498,-0.40216 h -0.846664 q -0.04233,0.0106 -0.232833,0.0529 -0.179916,0.0317 -0.423332,0.0847 0.03175,0.0847 0.127,0.21167 0.09525,0.11641 0.211666,0.24341 l -0.08467,0.11642 q -0.04233,-0.0317 -0.137583,-0.0635 -0.08467,-0.0318 -0.349249,-0.0318 l -0.740831,-0.0106 q -0.391582,0 -0.539748,0.0529 -0.148167,0.0423 -0.1905,0.0847 v 0.0212 q 0.05292,-0.0212 0.127,-0.0318 0.08467,-0.0212 0.169333,-0.0212 H 67.6197 q 0.264582,-0.0106 0.380999,0.1905 0.116416,0.20108 0.116416,0.41275 0,0.0953 -0.03175,0.21166 -0.02117,0.10584 -0.07408,0.24342 v -0.0106 q -0.0635,0.17992 -0.127,0.40217 -0.05292,0.21167 -0.05292,0.4445 0,0.1905 0.08467,0.51858 0.08467,0.3175 0.201083,0.66675 0.126999,0.33866 0.232832,0.60325 0.116417,0.26458 0.15875,0.34925 l 1.418162,2.50824 q 0.137583,0.20108 0.275166,0.52916 0.137583,0.3175 0.126999,0.59267 l -0.02117,0.70908 q -0.01058,0.52916 -0.169333,0.70908 -0.158749,0.17992 -0.560915,0.20108 l -1.174746,0.0423 q -0.05292,0 -0.116416,0.0106 -0.05292,0 -0.105833,0.0106 0.05292,0.0635 0.07408,0.0635 0.03175,0 0.190499,0 0.15875,-0.0106 0.391582,-0.0212 0.264583,-0.0212 0.560915,-0.0318 0.306916,-0.0106 0.550332,-0.0212 0.253999,-0.0106 0.359832,-0.0106 0.148166,0 0.465665,0.0212 0.317499,0.0212 0.613831,0.0423 0.232833,0.0106 0.402166,0.0212 0.179916,0.0106 0.232832,0.0106 z m -3.524238,-9.51438 q -0.09525,0 -0.169333,-0.0741 -0.07408,-0.0741 -0.07408,-0.16934 0,-0.0953 0.07408,-0.15875 0.07408,-0.0741 0.169333,-0.0741 0.09525,0 0.158749,0.0741 0.07408,0.0635 0.07408,0.15875 0,0.0952 -0.07408,0.16934 -0.0635,0.0741 -0.158749,0.0741 z m -2.381243,0 q 0.116417,-0.0635 0.285749,-0.10583 0.169333,-0.0423 0.444499,-0.0423 l 0.96308,-0.0106 q -0.116416,-0.127 -0.158749,-0.27517 l -1.206496,0.24342 q -0.127,0.0318 -0.211666,0.0741 -0.08467,0.0423 -0.116417,0.0741 z m 2.381243,-0.14817 q 0.09525,0 0.09525,-0.0952 0,-0.0953 -0.09525,-0.0953 -0.09525,0 -0.09525,0.0953 0,0.0952 0.09525,0.0952 z m -0.275166,9.37681 0.201083,-0.0212 0.529165,-1.97908 0.751414,0.42333 0.158749,-0.75141 -1.238246,-2.15899 q 0.04233,0.32808 0.07408,0.71966 0.03175,0.381 0.05292,0.68792 0.02117,0.29633 0.02117,0.39158 0,0.51858 -0.08467,1.03716 -0.07408,0.508 -0.201083,0.94191 -0.116416,0.42334 -0.264582,0.70909 z m 5.577399,0.26458 q 0.09525,0 0.201082,-0.0529 0.105833,-0.0635 0.169333,-0.10583 -0.03175,-0.0741 -0.09525,-0.254 -0.05292,-0.1905 -0.07408,-0.26458 l -1.841494,-1.79916 0.550332,1.50282 q 0.179916,0.49742 0.455082,0.74084 0.275166,0.23283 0.634998,0.23283 z m -5.16465,-0.29633 0.941913,-0.0212 q 0.275166,-0.0106 0.391582,-0.15875 0.127,-0.15875 0.137583,-0.55033 l 0.01058,-0.70908 q 0.01058,-0.11642 -0.03175,-0.27517 -0.03175,-0.16933 -0.0635,-0.27516 -0.04233,0.20108 -0.09525,0.40216 -0.04233,0.1905 -0.07408,0.35983 l -0.772581,-0.43391 q -0.116416,0.43391 -0.222249,0.8255 -0.105833,0.39158 -0.222249,0.83608 z m -1.915578,0.30691 q 0.0635,0 0.1905,-0.0318 0.09525,-0.0212 0.222249,-0.0318 0.127,-0.0212 0.253999,-0.0212 0.116416,0 0.222249,0.0106 0.116417,0.0106 0.1905,0.0212 l 0.02117,-0.0212 q -0.01058,-0.127 0.07408,-0.14817 l -1.132413,0.0741 q -0.04233,0.0106 -0.09525,0.0318 -0.04233,0.0106 -0.04233,0.0318 0,0.0847 0.09525,0.0847 z"
         id="path36084"
         style="stroke-width:0.037526" />
    </g>
    <g
       aria-label="ð“²"
       id="text28638"
       style="font-size:10.5833px;line-height:1.25;font-family:'Atkinson Hyperlegible';-inkscape-font-specification:'Atkinson Hyperlegible';stroke-width:0.037526">
      <path
         d="m 80.193859,114.31332 q -0.582082,-0.254 -1.21708,-0.62442 -0.634998,-0.37041 -1.227662,-0.83608 -0.592665,-0.46566 -1.068914,-1.00541 -0.476248,-0.53975 -0.761997,-1.13242 -0.275166,-0.60324 -0.275166,-1.23824 0,-0.46567 0.148166,-0.91017 0.148166,-0.45508 0.423332,-0.81491 0.275166,-0.37042 0.666748,-0.58208 0.402165,-0.22225 0.899581,-0.22225 0.645581,0 1.015996,0.23283 0.380999,0.23283 0.550332,0.59267 0.169333,0.35983 0.169333,0.76199 0,0.39159 -0.201083,0.77259 -0.190499,0.38099 -0.539748,0.63499 -0.349249,0.254 -0.793748,0.254 -0.550331,0 -0.83608,-0.29633 -0.275166,-0.30692 -0.275166,-0.762 0,-0.33866 0.243416,-0.635 0.253999,-0.30691 0.486831,-0.46566 l 0.116417,0.16933 q -0.201083,0.13759 -0.423332,0.40217 -0.22225,0.254 -0.22225,0.52916 0,0.35983 0.22225,0.61383 0.232832,0.24342 0.687914,0.24342 0.391582,0 0.687915,-0.22225 0.296332,-0.22225 0.465665,-0.56091 0.169333,-0.33867 0.169333,-0.67734 0,-0.34924 -0.148167,-0.65616 -0.148166,-0.3175 -0.486831,-0.51858 -0.328083,-0.20108 -0.888997,-0.20108 -0.518582,0 -0.963081,0.30691 -0.433915,0.29633 -0.709081,0.8255 -0.264582,0.51858 -0.264582,1.18533 0,0.58208 0.275165,1.15358 0.275166,0.56091 0.730248,1.09008 0.465665,0.51858 1.047747,0.97366 0.582081,0.45508 1.195913,0.8255 0.613831,0.35983 1.185329,0.61383 z"
         id="path36081"
         style="stroke-width:0.037526" />
    </g>
    <g
       aria-label="ð“€"
       id="text29002"
       style="font-size:10.5833px;line-height:1.25;font-family:'Atkinson Hyperlegible';-inkscape-font-specification:'Atkinson Hyperlegible';stroke-width:0.037526">
      <path
         d="m 81.326939,115.92728 v -0.47625 l 0.888997,-0.15875 0.148166,-0.0953 q -0.01058,-0.0423 -0.01058,-0.11642 0,-0.43391 0.709081,-0.75141 l -0.571498,-2.07433 q -0.01058,-0.0529 -0.04233,-0.17991 -0.02117,-0.127 -0.02117,-0.1905 0,-0.27517 0.169333,-0.508 0.169333,-0.24342 0.497415,-0.24342 0.158749,0 0.328082,0.0741 0.169333,0.0635 0.285749,0.20109 l 1.587495,1.77799 0.15875,-0.97366 -0.613832,-2.63524 -2.751658,0.98424 -0.349248,-0.22225 -0.08467,-0.37041 1.979077,-2.47649 0.391582,-0.1905 h 0.888997 l 0.137583,0.40216 -0.190499,0.381 -0.846664,0.11642 q -0.148166,0.20108 -0.402165,0.52916 -0.254,0.3175 -0.497415,0.61383 l 1.217079,-0.69849 q 0.179916,-0.14817 0.391582,-0.254 0.222249,-0.10584 0.571498,-0.1905 l 0.571498,-0.13759 -0.0635,-0.27516 -0.433916,0.15875 -0.253999,-0.66675 -0.328082,-0.0212 0.529165,-1.16416 0.02117,-0.13758 q 0.08467,-0.30692 0.296333,-0.46567 0.211666,-0.15875 0.624415,-0.15875 0.380998,0 0.709081,0.127 0.328082,0.127 0.529165,0.35984 0.201082,0.23283 0.201082,0.56091 0,0.29633 -0.179916,0.58208 -0.169333,0.28575 -0.455082,0.67733 v 0.40217 l 1.09008,0.26458 q 0.275166,0.0635 0.349249,0.26458 0.08467,0.20109 0.127,0.34925 l 0.751414,2.56116 -0.380999,1.86266 v 1.03716 l -0.433915,0.13759 v 0.13758 l -0.444499,0.0952 v -0.80433 l 0.169333,-0.45508 0.148166,-2.00025 -0.645581,-1.95791 -0.433915,1.67216 -0.127,1.68275 0.211666,0.0212 v 2.01082 l 0.529165,0.37042 0.888997,0.15875 v 0.47625 h -0.941913 l -1.428746,-0.40217 -2.095493,0.30692 q -0.412749,0.0635 -0.719665,0.0847 -0.296332,0.0106 -0.349248,0.0106 -0.328083,0 -0.560915,-0.13759 l -0.497415,0.13759 z m 5.609149,-8.41373 q 0.211666,-0.29633 0.380999,-0.58208 0.179916,-0.29633 0.179916,-0.59266 0,-0.27517 -0.211666,-0.45508 -0.211666,-0.17992 -0.497415,-0.26459 -0.28575,-0.0847 -0.518582,-0.0847 -0.264583,0 -0.465665,0.10583 -0.201083,0.10583 -0.285749,0.34925 l 0.825497,0.46566 q 0.05292,-0.0423 0.116416,-0.0741 0.0635,-0.0318 0.137583,-0.0318 0.137583,0 0.211666,0.10583 0.08467,0.0953 0.08467,0.21167 0,0.0741 -0.05292,0.17992 -0.05292,0.0952 -0.105833,0.15875 l -0.158749,0.19049 z m 1.354662,7.04848 0.137583,-0.0317 v -0.15875 l 0.359832,-0.11641 v -0.84667 l 0.391582,-1.96849 -0.719664,-2.44474 q -0.04233,-0.14817 -0.116416,-0.30692 -0.07408,-0.15875 -0.22225,-0.20108 l -1.248829,-0.30692 v -0.49741 l -0.518582,-0.43392 0.232833,-0.32808 q 0.04233,-0.0529 0.07408,-0.11642 0.04233,-0.0741 0.04233,-0.11641 0,-0.0317 -0.02117,-0.0847 -0.01058,-0.0635 -0.09525,-0.0635 -0.105833,0 -0.222249,0.127 l -0.899581,-0.508 -0.423332,0.96308 0.201083,0.0106 0.211666,0.58209 0.476248,-0.15875 0.169333,0.65616 -0.814914,0.16933 q -0.201083,0.0423 -0.455082,0.15875 -0.253999,0.10584 -0.370415,0.254 l -1.608662,0.84667 -0.07408,-0.127 1.12183,-1.49225 0.83608,-0.0953 q 0.01058,-0.0318 0.03175,-0.0741 0.03175,-0.0529 0.07408,-0.15875 -0.01058,-0.0529 -0.04233,-0.10583 -0.02117,-0.0529 -0.03175,-0.10584 H 84.07859 l -0.285749,0.15875 q -0.22225,0.28575 -0.507999,0.64558 -0.285749,0.34925 -0.582081,0.70909 -0.285749,0.34924 -0.507999,0.62441 -0.222249,0.26458 -0.306915,0.37042 l 0.02117,0.21166 0.254,0.13758 2.825741,-1.02658 0.666747,2.88925 -0.179916,1.04774 1.566329,-0.34925 0.137583,-1.74624 0.476248,-1.80975 0.243416,0.0106 0.751414,2.14841 -0.190499,2.01082 -0.169333,0.4445 z m -2.571742,-7.79989 q -0.116416,0 -0.201082,-0.0318 -0.08467,-0.0423 -0.15875,-0.0952 0.05292,-0.0635 0.148166,-0.0847 0.105833,-0.0212 0.127,-0.0212 0.201083,0 0.338665,0.21166 -0.07408,0.0106 -0.137582,0.0212 -0.0635,0 -0.116417,0 z m -2.476492,7.48239 0.465665,-0.23283 -0.645581,-1.94733 0.306916,-0.66675 q -0.127,-0.0635 -0.285749,-0.0635 -0.201083,0 -0.328083,0.15875 -0.126999,0.14817 -0.126999,0.39159 0,0.0741 0.02117,0.17991 0.03175,0.0953 0.05292,0.17992 z m 0.656165,-0.3175 1.312329,-0.59266 -1.682745,-1.85208 -0.253999,0.5715 z m -0.402166,1.15358 3.767655,-0.21166 v -1.79916 H 87.1795 l -1.799161,0.38099 -2.328326,1.0795 z m 4.455569,0.64558 h 0.709082 v -0.14816 l -0.761998,-0.0952 -0.613831,-0.43392 -3.894655,0.21167 -0.529165,-0.635 q -0.306915,0.14817 -0.306915,0.43392 0,0.26458 0.126999,0.41274 0.137583,0.13759 0.317499,0.1905 0.1905,0.0529 0.338666,0.0529 0.179916,0 0.497415,-0.0212 0.328082,-0.0212 0.571498,-0.0529 l 2.190743,-0.29633 z m -6.424062,0 h 0.709081 l 0.328082,-0.0847 q -0.105833,-0.11642 -0.148166,-0.24342 l -0.127,0.0847 -0.761997,0.0952 z"
         id="path36078"
         style="stroke-width:0.037526" />
    </g>
    <g
       aria-label="ð“‹´"
       id="text32930"
       style="font-size:10.5833px;line-height:1.25;font-family:'Atkinson Hyperlegible';-inkscape-font-specification:'Atkinson Hyperlegible';stroke-width:0.037526">
      <path
         d="M 70.741032,103.75429 V 92.430161 q 0,-0.370415 0.04233,-0.719664 0.04233,-0.349249 0.201083,-0.624415 0.158749,-0.285749 0.497415,-0.455082 0.349249,-0.169333 0.952497,-0.169333 0.613831,0 0.952497,0.1905 0.349249,0.179916 0.507998,0.486831 0.15875,0.296333 0.1905,0.645582 0.04233,0.349249 0.04233,0.666748 v 7.736392 h -0.836081 v -7.757559 q 0,-0.285749 -0.05292,-0.539748 -0.04233,-0.264583 -0.22225,-0.423332 -0.179916,-0.169333 -0.582081,-0.169333 -0.391582,0 -0.582082,0.190499 -0.179916,0.1905 -0.232832,0.455082 -0.04233,0.264583 -0.04233,0.486832 v 11.324129 z m 0.201083,-0.20108 H 71.37603 V 92.430161 q 0,-0.190499 0.03175,-0.423332 0.03175,-0.232833 0.126999,-0.433915 0.105833,-0.211666 0.317499,-0.338666 0.211666,-0.137583 0.582082,-0.137583 0.497415,0 0.719664,0.201083 0.22225,0.190499 0.275166,0.497415 0.0635,0.296332 0.0635,0.634998 v 7.556476 h 0.433915 v -7.535309 q 0,-0.285749 -0.03175,-0.592665 -0.03175,-0.317499 -0.179916,-0.582082 -0.137583,-0.275165 -0.444498,-0.444498 -0.296333,-0.169333 -0.836081,-0.169333 -0.529165,0 -0.836081,0.15875 -0.296332,0.148166 -0.444498,0.402165 -0.137583,0.253999 -0.179916,0.571498 -0.03175,0.306916 -0.03175,0.634998 z"
         id="path36075"
         style="stroke-width:0.037526" />
    </g>
    <g
       aria-label="ð“‡Œ"
       id="text33252"
       style="font-size:10.5833px;line-height:1.25;font-family:'Atkinson Hyperlegible';-inkscape-font-specification:'Atkinson Hyperlegible';stroke-width:0.037526">
      <path
         d="m 80.850358,102.40494 v -1.35466 q 0,-0.40217 -0.116416,-0.6985 -0.116416,-0.29633 -0.486832,-0.391584 l -1.174746,-0.296333 0.973664,-7.852808 1.079496,0.433915 q 0.285749,0.116416 0.402166,0.412749 0.126999,0.285749 0.126999,0.560915 v 9.186306 z m -3.312572,0 v -1.35466 q 0,-0.40217 -0.116417,-0.6985 -0.116416,-0.29633 -0.486831,-0.391584 l -1.164163,-0.296333 0.96308,-7.852808 1.09008,0.433915 q 0.275166,0.116416 0.402165,0.412749 0.127,0.285749 0.127,0.560915 v 9.186306 z m 0.211666,-0.17992 h 0.391582 v -9.006386 q 0,-0.211666 -0.09525,-0.444499 -0.08467,-0.232833 -0.317499,-0.338666 l -0.836081,-0.328082 -0.910163,7.397727 1.079496,0.296332 q 0.306916,0.08467 0.444499,0.285754 0.148166,0.19049 0.190499,0.42333 0.05292,0.23283 0.05292,0.4445 z m 3.301989,0 h 0.402165 v -9.006386 q 0,-0.211666 -0.09525,-0.444499 -0.08467,-0.232833 -0.317499,-0.338666 l -0.836081,-0.328082 -0.910164,7.397727 1.068914,0.296332 q 0.306915,0.08467 0.455082,0.285754 0.148166,0.19049 0.190499,0.42333 0.04233,0.23283 0.04233,0.4445 z"
         id="path36072"
         style="stroke-width:0.037526" />
    </g>
    <g
       aria-label="ð“’"
       id="text33858"
       style="font-size:10.5833px;line-height:1.25;font-family:'Atkinson Hyperlegible';-inkscape-font-specification:'Atkinson Hyperlegible';stroke-width:0.037526">
      <path
         d="m 84.650155,102.40494 -0.127,-0.4445 0.0635,-0.27517 -0.518582,-0.75141 0.306916,-0.46567 q -0.349249,0.0317 -0.402166,0.0317 -0.359832,0 -0.613831,-0.20108 -0.253999,-0.21166 -0.253999,-0.539747 0,-0.222249 0.169333,-0.370416 0.169332,-0.158749 0.455081,-0.275165 l 1.481662,-0.624415 q 0.02117,-0.359832 0.116417,-0.783164 0.105833,-0.423332 0.201082,-0.825498 0.09525,-0.402165 0.09525,-0.656164 l -0.232832,-0.22225 -0.867831,0.857248 -1.037163,0.603248 -0.613832,0.793747 -0.222249,-0.116416 0.126999,-0.349249 -0.190499,0.09525 -0.253999,0.433915 -0.264583,-0.116416 0.264583,-0.645581 0.296332,-0.243416 0.380999,-0.15875 1.05833,-0.910164 0.666748,-0.93133 q 0.253999,-0.433915 0.423332,-0.677331 0.179916,-0.243416 0.328082,-0.359832 0.148166,-0.127 0.317499,-0.179916 l 0.169333,-0.05292 -0.04233,-0.201083 -0.359832,0.116417 -0.211666,-0.560915 -0.264583,-0.02117 0.423332,-0.941914 0.02117,-0.116416 q 0.126999,-0.507998 0.80433,-0.507998 0.264583,0 0.529165,0.0635 0.275166,0.05292 0.465666,0.253999 0.201082,0.201082 0.222249,0.624414 l 0.07408,1.439329 0.264583,0.08467 q 0.232832,0.05292 0.317499,0.243416 0.09525,0.179916 0.137582,0.296332 l 0.571499,1.333496 -0.317499,1.206496 0.179916,0.497415 -0.0635,0.380999 -0.349249,0.613831 -0.275166,-0.105833 0.169333,-0.476248 -0.04233,-0.22225 -0.179916,0.328083 -0.275166,-0.09525 0.243416,-1.100663 0.126999,-1.015997 -0.444498,-0.709081 0.03175,0.624415 h -0.306916 l -0.222249,0.99483 -0.02117,0.910163 0.169333,0.01058 v 1.598078 l 0.380999,0.306916 0.730247,0.116411 v 0.48683 h -0.761997 l -1.005414,-0.27516 0.476249,0.70908 -0.507999,0.74083 0.05292,0.28575 -0.116416,0.4445 -0.296333,-0.0318 0.05292,-0.34925 -0.07408,-0.0635 -0.127,0.1905 -0.253999,-0.17992 0.656164,-0.98424 -0.539748,-0.74084 h -0.02117 v 0.21167 q 0.116416,0.15875 0.179916,0.27517 0.07408,0.11641 0.07408,0.23283 0,0.23283 -0.169333,0.37041 -0.169333,0.13759 -0.412749,0.13759 -0.158749,0 -0.285749,-0.0952 -0.116416,-0.0953 -0.148166,-0.23283 l -0.01058,-0.0529 -0.211666,-0.47625 h 0.179916 l 0.04233,-0.1905 0.232833,-0.0106 v -0.0847 l -0.328083,0.0423 -0.455082,0.62442 0.634998,0.96308 -0.232832,0.20108 -0.137583,-0.1905 -0.0635,0.0635 0.04233,0.33867 z m 1.777994,-6.498148 h 1.079496 L 87.391229,93.3033 q -0.02117,-0.402165 -0.0635,-0.687914 -0.04233,-0.28575 -0.253999,-0.433916 -0.201083,-0.158749 -0.719664,-0.158749 -0.455082,0 -0.571498,0.285749 l 0.624414,0.391582 q 0.105833,-0.08467 0.211666,-0.08467 0.116417,0 0.179916,0.09525 0.07408,0.09525 0.07408,0.1905 0,0.148166 -0.105833,0.275165 l -0.158749,0.211666 z m -1.005414,2.508242 1.555745,-0.423332 0.02117,-0.973664 0.222249,-0.941913 h -1.005413 l 0.201083,-2.709325 0.190499,-0.264583 q 0.09525,-0.09525 0.09525,-0.179916 0,-0.03175 -0.01058,-0.07408 -0.01058,-0.05292 -0.08467,-0.05292 -0.105833,0 -0.179916,0.105833 l -0.730248,-0.412749 -0.349249,0.783164 0.169333,0.01058 0.169333,0.476249 0.370415,-0.127 0.127,0.529165 -0.285749,0.08467 q -0.169333,0.04233 -0.402165,0.285749 -0.232833,0.243416 -0.603249,0.86783 l -0.677331,0.952497 -1.068913,0.920747 -0.433915,0.179917 -0.275166,0.201082 -0.211666,0.476249 0.0635,0.03175 0.243416,-0.412749 0.349248,-0.15875 0.05292,0.0635 -0.15875,0.391582 0.07408,0.03175 0.539748,-0.740831 1.02658,-0.603248 0.846664,-0.888997 -0.169333,-0.201083 0.497415,-0.730247 0.179916,0.0635 -0.423332,0.666748 0.486832,0.550332 q -0.04233,0.465665 -0.211666,1.047747 -0.158749,0.582081 -0.201083,1.174746 z m 0.476249,-5.439816 q -0.09525,0 -0.169333,-0.03175 -0.0635,-0.03175 -0.126999,-0.07408 0.05292,-0.05292 0.126999,-0.0635 0.08467,-0.02117 0.105833,-0.02117 0.09525,0 0.148166,0.04233 0.0635,0.04233 0.127,0.126999 -0.0635,0.01058 -0.116416,0.02117 -0.04233,0 -0.09525,10e-7 z m 2.423576,5.704398 0.222249,-0.465665 0.04233,-0.328082 -0.190499,-0.518582 0.317499,-1.248829 -0.529165,-1.206496 q -0.04233,-0.116417 -0.137583,-0.264583 -0.09525,-0.158749 -0.211666,-0.190499 l -0.1905,-0.0635 0.04233,0.634998 0.666747,1.100663 -0.158749,1.09008 -0.232833,0.96308 0.0635,0.03175 0.201083,-0.380999 h 0.07408 l 0.105833,0.359832 -0.15875,0.465666 z m -4.222737,1.047747 3.058574,-0.179916 v -1.386412 h -0.07408 l -1.661578,0.455081 -1.672161,0.698498 z m 3.619488,0.603247 h 0.582082 v -0.15875 l -0.624415,-0.0741 -0.497415,-0.359834 -3.185573,0.179916 -0.433915,-0.529165 q -0.243416,0.148167 -0.243416,0.359833 0,0.32808 0.222249,0.45508 0.232833,0.11642 0.423332,0.11642 0.148166,0 0.391582,-0.0212 0.243416,-0.0318 0.444499,-0.0635 l 1.788577,-0.253998 z m -1.238246,1.96849 0.07408,-0.32808 -0.08467,-0.28575 0.497415,-0.75141 -0.497415,-0.75142 -0.264582,0.0318 0.539748,0.762 -0.677331,0.98425 0.05292,0.0529 0.148166,-0.1905 0.201083,0.13758 -0.05292,0.32808 z m -1.164163,-1.24882 0.380999,-0.21167 q 0.02117,0.0106 0.03175,0.0318 0.01058,0.0212 0.04233,0.0212 0.0635,0 0.0635,-0.0529 0,-0.0423 -0.04233,-0.0847 l -0.127,-0.17991 0.179916,-0.13759 v -0.16933 l -0.253999,0.0423 v 0.20109 l -0.285749,0.0106 -0.03175,0.17992 h -0.105833 z m -0.560914,1.24882 0.05292,-0.0106 -0.04233,-0.3175 0.201083,-0.14816 0.148166,0.20108 0.05292,-0.0529 -0.687914,-0.99483 0.402165,-0.56091 h -0.05292 q -0.0635,0.0106 -0.127,0.0212 -0.05292,0.0106 -0.105833,0.0106 l -0.328082,0.49741 0.486832,0.75142 -0.08467,0.27516 z m 0.89958,-0.97366 q 0.179916,0 0.317499,-0.0953 0.137583,-0.10583 0.137583,-0.24341 0,-0.11642 -0.0635,-0.22225 -0.05292,-0.10584 -0.137583,-0.21167 l -0.08467,0.0529 0.0635,0.0847 q 0.02117,0.0318 0.04233,0.0741 0.02117,0.0318 0.02117,0.0847 -0.01058,0.0529 -0.04233,0.10584 -0.03175,0.0423 -0.105833,0.0423 -0.03175,0 -0.05292,-0.0106 -0.02117,-0.0212 -0.04233,-0.0318 l -0.338665,0.1905 q 0.08467,0.17991 0.285749,0.17991 z m -0.243416,-0.41275 q -0.0635,0 -0.105833,-0.0423 0.05292,-0.0423 0.137583,-0.0423 0.0635,0 0.105833,0.0106 -0.0635,0.0741 -0.137583,0.0741 z"
         id="path36069"
         style="stroke-width:0.037526" />
    </g>
  </g>
</svg>
